<?xml version="1.0" encoding="UTF-8" standalone="no"?><!DOCTYPE svg PUBLIC "-//W3C//DTD SVG 1.1//EN"
        "http://www.w3.org/Graphics/SVG/1.1/DTD/svg11.dtd">
<svg width="1024" height="1024" viewBox="0 0 1182 1182" version="1.1" xmlns="http://www.w3.org/2000/svg"
     xmlns:xlink="http://www.w3.org/1999/xlink" xml:space="preserve" xmlns:serif="http://www.serif.com/"
     style="fill-rule:evenodd;clip-rule:evenodd;stroke-miterlimit:22.9256;"><g id="_899403856"><g><g><path d="M590.551,590.551l221.473,534.686" style="fill:none;stroke:#f00;stroke-width:2.36px;"/><path
        d="M590.551,590.551l534.685,221.475" style="fill:none;stroke:#f00;stroke-width:2.36px;"/><path
        d="M590.551,590.551l534.686,-221.473" style="fill:none;stroke:#f00;stroke-width:2.36px;"/><path
        d="M590.551,590.551l221.475,-534.685" style="fill:none;stroke:#f00;stroke-width:2.36px;"/><path
        d="M590.551,590.551l-221.473,-534.686" style="fill:none;stroke:#f00;stroke-width:2.36px;"/><path
        d="M590.551,590.551l-534.685,-221.474" style="fill:none;stroke:#f00;stroke-width:2.36px;"/><path
        d="M590.551,590.551l-534.686,221.473" style="fill:none;stroke:#f00;stroke-width:2.36px;"/><path
        d="M590.551,590.551l-221.474,534.685" style="fill:none;stroke:#f00;stroke-width:2.36px;"/></g><path
        d="M369.077,55.865l221.474,0l221.475,0.001l156.605,156.605l156.606,156.606l0,221.474l-0.001,221.475l-156.605,156.605l-156.605,156.606l-221.475,0l-221.474,-0.001l-156.606,-156.605l-156.606,-156.605l0,-221.475l0.001,-221.474l156.605,-156.606l156.606,-156.606Z"
        style="fill:none;stroke:#f00;stroke-width:2.36px;"/></g></g></svg>
