<?xml version="1.0" encoding="UTF-8" standalone="no"?>
<svg
   width="1024"
   height="1024"
   viewBox="0 0 1024 1024"
   version="1.1"
   id="svg48795"
   sodipodi:docname="Hat04_U2_6.svg"
   inkscape:version="1.1.1 (3bf5ae0d25, 2021-09-20)"
   xmlns:inkscape="http://www.inkscape.org/namespaces/inkscape"
   xmlns:sodipodi="http://sodipodi.sourceforge.net/DTD/sodipodi-0.dtd"
   xmlns="http://www.w3.org/2000/svg"
   xmlns:svg="http://www.w3.org/2000/svg">
  <defs
     id="defs48799">
    <style
       type="text/css"
       id="style61205"><![CDATA[
    .str0 {stroke:black;stroke-width:20;stroke-linecap:round;stroke-linejoin:round;stroke-miterlimit:22.9256}
    .fil0 {fill:#ff0000}
   ]]></style>
  </defs>
  <sodipodi:namedview
     id="namedview48797"
     pagecolor="#ffffff"
     bordercolor="#666666"
     borderopacity="1.0"
     inkscape:pageshadow="2"
     inkscape:pageopacity="0.0"
     inkscape:pagecheckerboard="0"
     showgrid="false"
     inkscape:zoom="0.55795144"
     inkscape:cx="440.00245"
     inkscape:cy="616.54111"
     inkscape:window-width="1920"
     inkscape:window-height="1017"
     inkscape:window-x="1072"
     inkscape:window-y="592"
     inkscape:window-maximized="1"
     inkscape:current-layer="Layer_x0020_1" />
  <desc
     id="desc24405">, (Blender 3.0.0)</desc>
  <g
     id="Layer_x0020_1"
     inkscape:label="Layer 1"
     inkscape:groupmode="layer"
     transform="matrix(0.03779525,0,0,0.03779525,10.938289,9.9622062)"
     style="clip-rule:evenodd;fill-rule:evenodd;image-rendering:optimizeQuality;shape-rendering:geometricPrecision;text-rendering:geometricPrecision">
    <metadata
       id="CorelCorpID_0Corel-Layer" />
    <g
       id="path61220"
       class="fil0 str0">
      <path
         id="path3399"
         style="color:#000000;clip-rule:nonzero;fill:#ff0000;fill-rule:nonzero;stroke:none;stroke-width:2;stroke-linecap:round;stroke-linejoin:round;stroke-miterlimit:22.9256;-inkscape-stroke:none;shape-rendering:auto"
         d="M 519.98828 522.13672 A 1.0001 1.0001 0 0 0 518.97461 523.1543 C 519.50148 553.79358 520.08202 585.88583 521.5332 616.38867 C 523.88569 665.82951 530.23695 734.13932 539.34961 782.47461 C 556.4907 873.39445 593.59797 936.42192 638.91406 1014.623 A 1.0001 1.0001 0 0 0 640.2793 1014.9883 L 890.02539 870.79492 A 1.0001 1.0001 0 0 0 890.40234 869.44727 L 886.2793 861.94531 C 870.56592 833.34803 856.61723 809.80556 838.6875 782.42773 C 816.67396 748.81487 790.24274 710.88394 761.25 682.96289 C 729.41945 652.30913 675.14591 615.14191 637.29102 591.43945 C 605.39538 571.46844 572.89663 553.82333 540.69727 534.58789 L 540.69336 534.58789 L 520.49609 522.2832 A 1.0001 1.0001 0 0 0 519.98828 522.13672 z "
         transform="matrix(26.458351,0,0,26.458351,-289.40909,-263.58355)" />
    </g>
  </g>
</svg>
