<?xml version="1.0" encoding="UTF-8"?>
<!DOCTYPE svg PUBLIC "-//W3C//DTD SVG 1.1//EN" "http://www.w3.org/Graphics/SVG/1.1/DTD/svg11.dtd">
<!-- Creator: CorelDRAW 2021 (64-Bit) -->
<svg xmlns="http://www.w3.org/2000/svg" xml:space="preserve" width="1024" height="1024" version="1.1" style="shape-rendering:geometricPrecision; text-rendering:geometricPrecision; image-rendering:optimizeQuality; fill-rule:evenodd; clip-rule:evenodd"
viewBox="0 0 15037.18 15037.18"
 xmlns:xlink="http://www.w3.org/1999/xlink"
 xmlns:xodm="http://www.corel.com/coreldraw/odm/2003">
 <defs>
  <style type="text/css">
   <![CDATA[
    .fil0 {fill:#ff0000}
   ]]>
  </style>
 </defs>
 <g id="Layer_x0020_1">
  <metadata id="CorelCorpID_0Corel-Layer"/>
  <polygon class="fil0" points="13418.33,4073.47 13571.34,4438.68 13704.8,4811.47 13810.32,5156.16 13900.89,5505.1 13974,5858.1 14031.64,6213.94 14072.38,6572.16 14098.96,6931.69 14117.59,7291.76 14128.33,7539.99 14128.35,7788.06 14119.01,8149.1 14094.6,8509.37 14059.73,8868.87 14009.26,9226.4 13942.04,9581.24 13858.17,9932.5 13759.35,10279.88 13630.87,10655.06 13483.15,11023.04 13315.83,11382.57 13128.08,11731.91 12919.69,12069.31 12691.28,12393.47 12443.12,12702.81 12175.79,12995.74 11890.19,13270.86 11587.29,13526.83 11268.22,13762.31 10934.36,13976.34 10587.4,14168.38 10228.9,14337.96 9860.52,14484.78 9483.82,14608.83 9100.42,14710.11 8711.67,14788.46 8319.06,14844.25 7923.93,14877.87 7527.6,14890.94 7133.89,14875.01 6741.49,14839.45 6352.32,14777.74 5967.22,14694.5 5587.93,14587.7 5216.19,14456.96 4853.09,14304.1 4499.91,14129.49 4158.08,13933.55 3829.22,13716.53 3515.36,13478.27 3217.01,13220.97 2935.07,12945.74 2670.52,12653.8 2424.3,12346.15 2197.38,12024.03 1989.21,11689.51 1799.96,11343.94 1629.6,10988.63 1478.46,10624.73 1346.9,10253.32 1241.86,9910.44 1151.33,9563.43 1075.19,9212.98 1011.64,8860.03 961.78,8504.9 926.82,8147.98 905.6,7789.99 894.53,7542.21 892.27,7293.82 898.4,6933.49 919.41,6573.73 955.88,6215.22 1006.58,5858.44 1071.88,5504.03 1154.9,5153.35 1253.22,4806.65 1382.15,4432.39 1531.38,4065.79 1700.79,3708.04 1890.63,3360.73 2101.52,3025.74 2331.57,2703.68 2580.31,2395.75 2847.71,2103.92 3132.53,1829.07 3433.1,1571.56 3748.37,1332.21 4078.32,1113.49 4420.39,914.36 4773.85,736.28 5137.59,580.21 5510.36,447.2 5890.97,338.53 6277.65,254 6669.17,196.35 7063.78,166.46 7459.57,162.8 7854.84,177.74 8260.77,214.75 8638.51,273.22 9037.55,363.53 9411.15,475.77 9780.14,609.45 10153.06,764.18 10501.47,947.75 10846.23,1142.36 11178.73,1357.41 11497.07,1592.9 11800.04,1847.81 12086.75,2120.86 12356.28,2410.92 12607.72,2716.73 12840.45,3037.12 13052.99,3371.22 13245.66,3717.14 "/>
 </g>
</svg>
