<?xml version="1.0" encoding="UTF-8" standalone="no"?>
<svg
   width="1024"
   height="1024"
   viewBox="0 0 1024 1024"
   version="1.1"
   id="svg48795"
   sodipodi:docname="Hat04_U2_1.svg"
   inkscape:version="1.1.1 (3bf5ae0d25, 2021-09-20)"
   xmlns:inkscape="http://www.inkscape.org/namespaces/inkscape"
   xmlns:sodipodi="http://sodipodi.sourceforge.net/DTD/sodipodi-0.dtd"
   xmlns="http://www.w3.org/2000/svg"
   xmlns:svg="http://www.w3.org/2000/svg">
  <defs
     id="defs48799">
    <style
       type="text/css"
       id="style61205"><![CDATA[
    .str0 {stroke:black;stroke-width:20;stroke-linecap:round;stroke-linejoin:round;stroke-miterlimit:22.9256}
    .fil0 {fill:#ff0000}
   ]]></style>
  </defs>
  <sodipodi:namedview
     id="namedview48797"
     pagecolor="#ffffff"
     bordercolor="#666666"
     borderopacity="1.0"
     inkscape:pageshadow="2"
     inkscape:pageopacity="0.0"
     inkscape:pagecheckerboard="0"
     showgrid="false"
     inkscape:zoom="1.6390361"
     inkscape:cx="319.39503"
     inkscape:cy="768.74449"
     inkscape:window-width="1920"
     inkscape:window-height="1017"
     inkscape:window-x="1072"
     inkscape:window-y="592"
     inkscape:window-maximized="1"
     inkscape:current-layer="path61218" />
  <desc
     id="desc24405">, (Blender 3.0.0)</desc>
  <g
     id="Layer_x0020_1"
     inkscape:label="Layer 1"
     inkscape:groupmode="layer"
     transform="matrix(0.03779525,0,0,0.03779525,10.938289,9.9622062)"
     style="clip-rule:evenodd;fill-rule:evenodd;image-rendering:optimizeQuality;shape-rendering:geometricPrecision;text-rendering:geometricPrecision">
    <metadata
       id="CorelCorpID_0Corel-Layer" />
    <g
       id="path61218"
       class="fil0 str0">
      <path
         id="path2217"
         style="color:#000000;clip-rule:nonzero;fill:#ff0000;fill-rule:nonzero;stroke:none;stroke-width:2;stroke-linecap:round;stroke-linejoin:round;stroke-miterlimit:22.9256;-inkscape-stroke:none;shape-rendering:auto"
         d="M 504.00781 522.14844 A 1.0001 1.0001 0 0 0 503.50195 522.28906 L 459.14844 548.77734 C 430.11624 565.53183 403.24713 580.71766 374.86133 598.96094 C 335.77406 624.08216 284.72244 659.46305 252.83789 692.93555 C 224.44247 722.74545 192.16123 770.81266 170.19336 806.04883 C 156.85116 827.45009 145.61498 847.58507 133.5957 869.45117 A 1.0001 1.0001 0 0 0 133.97266 870.79883 L 383.71289 1014.9863 A 1.0001 1.0001 0 0 0 385.07812 1014.623 C 406.38752 977.84336 428.48304 940.26587 446.23438 901.60938 C 476.7639 835.12606 486.26961 785.27606 494.57031 713.54688 C 501.93211 649.93237 503.7778 595.27046 504.86914 531.60742 L 505.01367 523.16602 A 1.0001 1.0001 0 0 0 504.00781 522.14844 z "
         transform="matrix(26.458351,0,0,26.458351,-289.40909,-263.58355)" />
    </g>
  </g>
</svg>
