<?xml version="1.0" encoding="UTF-8" standalone="no"?>
<svg
   width="1024"
   height="1024"
   viewBox="0 0 1024 1024"
   version="1.1"
   id="svg48795"
   sodipodi:docname="Hat04_U2_4.svg"
   inkscape:version="1.1.1 (3bf5ae0d25, 2021-09-20)"
   xmlns:inkscape="http://www.inkscape.org/namespaces/inkscape"
   xmlns:sodipodi="http://sodipodi.sourceforge.net/DTD/sodipodi-0.dtd"
   xmlns="http://www.w3.org/2000/svg"
   xmlns:svg="http://www.w3.org/2000/svg">
  <defs
     id="defs48799">
    <style
       type="text/css"
       id="style61205"><![CDATA[
    .str0 {stroke:black;stroke-width:20;stroke-linecap:round;stroke-linejoin:round;stroke-miterlimit:22.9256}
    .fil0 {fill:#ff0000}
   ]]></style>
  </defs>
  <sodipodi:namedview
     id="namedview48797"
     pagecolor="#ffffff"
     bordercolor="#666666"
     borderopacity="1.0"
     inkscape:pageshadow="2"
     inkscape:pageopacity="0.0"
     inkscape:pagecheckerboard="0"
     showgrid="false"
     inkscape:zoom="0.55795144"
     inkscape:cx="440.00245"
     inkscape:cy="616.54111"
     inkscape:window-width="1920"
     inkscape:window-height="1017"
     inkscape:window-x="1072"
     inkscape:window-y="592"
     inkscape:window-maximized="1"
     inkscape:current-layer="Layer_x0020_1" />
  <desc
     id="desc24405">, (Blender 3.0.0)</desc>
  <g
     id="Layer_x0020_1"
     inkscape:label="Layer 1"
     inkscape:groupmode="layer"
     transform="matrix(0.03779525,0,0,0.03779525,10.938289,9.9622062)"
     style="clip-rule:evenodd;fill-rule:evenodd;image-rendering:optimizeQuality;shape-rendering:geometricPrecision;text-rendering:geometricPrecision">
    <metadata
       id="CorelCorpID_0Corel-Layer" />
    <g
       id="path61212"
       class="fil0 str0">
      <path
         id="path2911"
         style="color:#000000;clip-rule:nonzero;fill:#ff0000;fill-rule:nonzero;stroke:none;stroke-width:2;stroke-linecap:round;stroke-linejoin:round;stroke-miterlimit:22.9256;-inkscape-stroke:none;shape-rendering:auto"
         d="M 725.41016 10.197266 A 1.0001 1.0001 0 0 0 724.54297 10.707031 C 715.86348 26.093937 706.97983 41.61366 697.83398 56.689453 C 692.42511 65.604967 685.88783 76.510882 680.25195 84.955078 C 676.52931 90.532644 668.9447 101.05501 664.78125 106.10938 L 656.10742 115.91406 L 646.63477 124.90234 L 636.21094 132.74023 L 624.96484 139.3457 L 613.07227 144.71289 L 600.64453 148.71289 L 587.88867 151.50391 L 574.90234 152.97656 L 561.83789 153.48828 L 548.75586 152.72656 C 542.23142 152.28052 535.90256 151.29377 529.55859 149.70703 A 1.0001 1.0001 0 0 0 528.32227 150.55273 L 524.09961 183.85938 A 1.0001 1.0001 0 0 0 524.09766 183.87891 C 519.43762 227.38622 519.10998 288.76168 521.54297 332.61914 C 523.91334 375.34534 530.9984 419.09082 537.09375 461.52344 A 1.0001 1.0001 0 0 0 538.63477 462.2168 L 579.93555 435.04297 A 1.0001 1.0001 0 0 0 579.94727 435.03516 C 598.68728 422.31161 618.26104 407.82181 636.46875 394.27539 C 661.06567 375.97526 678.51665 362.22187 701.33398 341.48633 C 738.34101 307.85511 755.65304 288.76147 785.14062 248.37305 C 800.33107 227.56682 810.39061 212.37531 823.41406 190.11328 A 1.0001 1.0001 0 0 0 823.41797 190.10938 L 876.45508 98.441406 A 1.0001 1.0001 0 0 0 876.08984 97.076172 L 835.86719 73.84375 L 725.91406 10.332031 A 1.0001 1.0001 0 0 0 725.41016 10.197266 z "
         transform="matrix(26.458351,0,0,26.458351,-289.40909,-263.58355)" />
    </g>
  </g>
</svg>
