<?xml version="1.0" encoding="UTF-8"?>
<!DOCTYPE svg PUBLIC "-//W3C//DTD SVG 1.1//EN" "http://www.w3.org/Graphics/SVG/1.1/DTD/svg11.dtd">
<!-- Creator: CorelDRAW 2021 (64-Bit) -->
<svg xmlns="http://www.w3.org/2000/svg" xml:space="preserve" width="1024" height="1024" version="1.1" style="shape-rendering:geometricPrecision; text-rendering:geometricPrecision; image-rendering:optimizeQuality; fill-rule:evenodd; clip-rule:evenodd"
viewBox="0 0 26566.56 26566.46"
 xmlns:xlink="http://www.w3.org/1999/xlink"
 xmlns:xodm="http://www.corel.com/coreldraw/odm/2003">
 <defs>
  <style type="text/css">
   <![CDATA[
    .str0 {stroke:black;stroke-width:16.93;stroke-linecap:round;stroke-linejoin:round;stroke-miterlimit:22.9256}
    .fil0 {fill:#ff0000}
   ]]>
  </style>
 </defs>
 <g id="Layer_x0020_1">
  <metadata id="CorelCorpID_0Corel-Layer"/>
  <path class="fil0 str0" d="M24874.53 7377.69l348.03 739.55 300.88 759.91 252.55 777.31 203.26 791.66 153.13 802.83 102.45 810.88 51.32 815.73 0 204.29 0 204.35 0 204.35 0 204.29 -51.32 815.71 -102.45 810.88 -153.13 802.82 -203.26 791.67 -252.55 777.33 -300.88 759.91 -348 739.55 -393.76 716.21 -437.94 690.08 -480.42 661.24 -520.97 629.75 -559.47 595.82 -595.83 559.48 -629.74 520.99 -661.24 480.4 -690.08 437.94 -716.21 393.75 -739.56 348 -759.9 300.88 -777.34 252.58 -791.64 203.26 -802.85 153.13 -810.85 102.45 -815.73 51.32 -817.31 0 -815.71 -51.32 -810.88 -102.45 -802.85 -153.13 -791.64 -203.26 -777.33 -252.55 -759.91 -300.88 -739.55 -348.03 -716.21 -393.73 -690.08 -437.94 -661.24 -480.42 -629.75 -520.97 -595.82 -559.47 -559.48 -595.83 -520.99 -629.74 -480.4 -661.24 -437.94 -690.08 -393.75 -716.21 -348.03 -739.56 -300.85 -759.9 -252.58 -777.34 -203.26 -791.64 -153.13 -802.85 -102.45 -810.88 -51.31 -815.7 0 -204.32 0 -204.35 0 -204.32 0 -204.32 51.31 -815.73 102.45 -810.88 153.13 -802.83 203.26 -791.64 252.55 -777.33 300.88 -759.91 348.03 -739.55 393.73 -716.21 437.94 -690.11 480.42 -661.21 520.97 -629.77 559.47 -595.8 595.83 -559.48 629.74 -520.99 661.24 -480.4 690.11 -437.94 716.21 -393.75 739.53 -348.03 759.9 -300.88 777.34 -252.55 791.66 -203.26 802.83 -153.13 810.88 -102.45 815.73 -51.32 817.28 0 815.73 51.32 810.88 102.45 802.83 153.13 791.66 203.26 777.34 252.58 759.88 300.85 739.55 348.03 716.21 393.73 690.11 437.96 661.21 480.4 629.77 520.99 595.8 559.48 559.48 595.8 520.99 629.77 480.42 661.21 437.94 690.11 393.73 716.21zm-4440.07 5681.76l-28.25 -448.66 -56.34 -445.98 -84.22 -441.57 -111.81 -435.38 -138.89 -427.54 -165.48 -417.95 -191.42 -406.73 -216.56 -393.94 -240.85 -379.56 -264.22 -363.66 -286.54 -346.36 -307.73 -327.71 -327.69 -307.73 -346.38 -286.54 -363.64 -264.22 -379.58 -240.85 -393.91 -216.56 -406.76 -191.42 -417.95 -165.48 -427.54 -138.89 -435.38 -111.81 -441.57 -84.22 -445.98 -56.34 -448.66 -28.25 -449.5 0 -448.66 28.25 -445.98 56.34 -441.57 84.25 -435.41 111.78 -427.51 138.89 -417.95 165.48 -406.73 191.42 -393.94 216.56 -379.58 240.85 -363.65 264.22 -346.37 286.54 -327.69 307.73 -307.73 327.71 -286.54 346.36 -264.22 363.66 -240.85 379.56 -216.56 393.94 -191.42 406.73 -165.48 417.95 -138.89 427.54 -111.81 435.41 -84.22 441.54 -56.34 445.98 -28.25 448.66 0 112.37 0 112.38 0 112.41 0 112.34 28.25 448.66 56.34 445.98 84.25 441.57 111.78 435.41 138.89 427.51 165.48 417.98 191.42 406.73 216.56 393.91 240.85 379.58 264.22 363.65 286.54 346.37 307.73 327.69 327.71 307.73 346.36 286.54 363.66 264.22 379.59 240.85 393.91 216.56 406.73 191.42 417.95 165.48 427.51 138.89 435.44 111.81 441.54 84.22 445.98 56.34 448.66 28.25 449.53 0 448.66 -28.25 445.95 -56.34 441.57 -84.22 435.38 -111.81 427.54 -138.89 417.98 -165.48 406.73 -191.42 393.91 -216.56 379.58 -240.85 363.65 -264.22 346.37 -286.54 327.72 -307.73 307.7 -327.71 286.54 -346.36 264.25 -363.66 240.82 -379.59 216.59 -393.91 191.39 -406.73 165.5 -417.97 138.87 -427.49 111.81 -435.44 84.22 -441.54 56.34 -445.98 28.25 -448.66 0 -112.34 0 -112.41 0 -112.41 0 -112.34z"/>
 </g>
</svg>
