<?xml version="1.0" encoding="utf-8"?>
<!-- Generator: Adobe Illustrator 23.0.5, SVG Export Plug-In . SVG Version: 6.00 Build 0)  -->
<svg version="1.1" id="图层_1" xmlns="http://www.w3.org/2000/svg" xmlns:xlink="http://www.w3.org/1999/xlink" x="0px" y="0px"
	 width="1024" height="1024" viewBox="0 0 2834.6 2834.6" style="enable-background:new 0 0 2834.6 2834.6;" xml:space="preserve">
<style type="text/css">
	.st0{fill:#ff0000;stroke:#140700;stroke-miterlimit:10;}
</style>
<path class="st0" d="M1640.4,687c-3.3-2-6.6-4.1-9.9-6.1l0,0c-5.9,9.9-11.8,19.7-17.7,29.6c-5.9,9.9-11.8,19.7-17.7,29.6
	c-5.9,9.9-11.8,19.7-17.7,29.6c-5.9,9.9-11.8,19.7-17.7,29.6c-5.9,9.9-11.8,19.7-17.7,29.6c-5.9,9.9-11.8,19.7-17.7,29.6
	c-5.9,9.9-11.8,19.7-17.7,29.6c-5.9,9.9-11.8,19.7-17.7,29.6c-5.9,9.9-11.8,19.7-17.7,29.6c-5.9,9.9-11.8,19.7-17.7,29.6
	c-5.9,9.9-11.8,19.7-17.7,29.6c-5.9,9.9-11.8,19.7-17.7,29.6c-5.9-9.9-11.8-19.7-17.7-29.6c-5.9-9.9-11.8-19.7-17.7-29.6
	c-5.9-9.9-11.8-19.7-17.7-29.6c-5.9-9.9-11.8-19.7-17.7-29.6c-5.9-9.9-11.8-19.7-17.7-29.6c-5.9-9.9-11.8-19.7-17.7-29.6
	c-5.9-9.9-11.8-19.7-17.7-29.6c-5.9-9.9-11.8-19.7-17.7-29.6c-5.9-9.9-11.8-19.7-17.7-29.6c-5.9-9.9-11.8-19.7-17.7-29.6
	c-5.9-9.9-11.8-19.7-17.7-29.6c-5.9-9.9-11.8-19.7-17.7-29.6l0,0c-3.3,2-6.6,4.1-9.9,6.1c-9.3,5.7-18.6,11.5-28,17.2
	c-9.3,5.7-18.7,11.4-28,17.2c-9.3,5.7-18.7,11.4-28,17.1c-9.4,5.6-18.8,11.3-28.2,16.9c-9.4,5.6-18.9,11.1-28.3,16.7
	c-9.5,5.5-19,11-28.4,16.4c-9.5,5.4-19.1,10.7-28.6,16.1c-10,5.4-20,10.9-30,16.3c-10.1,5.3-20.1,10.6-30.2,15.9
	c-10.1,5.2-20.3,10.3-30.4,15.5c-10.2,5-20.4,10-30.6,15.1c-10.3,4.9-20.5,9.8-30.8,14.7c-10.3,4.8-20.7,9.5-31,14.3
	c-10.4,4.6-20.8,9.2-31.2,13.9c-10.5,4.5-20.9,9-31.4,13.4c-10.5,4.4-21,8.7-31.5,13.1c-10.6,4.2-21.1,8.5-31.7,12.7
	c-10.6,4.1-21.2,8.2-31.8,12.3c-10.7,4-21.3,7.9-32,11.9c-10.7,3.8-21.4,7.7-32.1,11.5c-10.8,3.7-21.5,7.4-32.3,11.1
	c-10.8,3.6-21.6,7.1-32.4,10.7c-10.8,3.4-21.7,6.9-32.5,10.3c-10.9,3.3-21.8,6.6-32.7,9.9c-10.9,3.2-21.9,6.3-32.8,9.5
	c-11,3-22,6-32.9,9c-11,2.8-22,5.7-33.1,8.5c-11.1,2.7-22.1,5.3-33.2,8c-11.1,2.5-22.2,5-33.3,7.5c-11.1,2.3-22.3,4.7-33.4,7
	c-11.2,2.1-22.3,4.3-33.5,6.4c-11.2,2-22.4,4-33.6,5.9c-11.2,1.9-22.4,3.7-33.7,5.6c-11.2,1.7-22.5,3.5-33.7,5.2
	c-11.3,1.7-22.5,3.3-33.8,5c-11.3,1.6-22.5,3.2-33.8,4.8c-11.3,1.6-22.5,3.2-33.8,4.7l0,0c1.7,11.4,3.4,22.7,5.1,34.1
	c1.7,11.4,3.4,22.7,5.1,34.1c1.7,11.4,3.4,22.7,5.1,34.1c1.7,11.4,3.4,22.7,5.1,34.1c1.7,11.4,3.4,22.7,5.1,34.1
	c1.7,11.4,3.4,22.7,5.1,34.1c1.7,11.4,3.4,22.7,5.1,34.1c1.7,11.4,3.4,22.7,5.1,34.1c1.7,11.4,3.4,22.7,5.1,34.1
	c1.7,11.4,3.4,22.7,5.1,34.1c1.7,11.4,3.4,22.7,5.1,34.1c1.7,11.4,3.4,22.7,5.1,34.1c1.7,11.4,3.4,22.7,5.1,34.1
	c1.7,11.4,3.4,22.7,5.1,34.1c1.7,11.4,3.4,22.7,5.1,34.1c1.7,11.4,3.4,22.7,5.1,34.1c1.7,11.4,3.4,22.7,5.1,34.1l0,0
	c11.3,0.5,22.6,1.1,33.8,1.6c11.3,0.6,22.5,1.3,33.8,1.9c11.3,0.9,22.5,1.7,33.8,2.6c11.2,1,22.5,2.1,33.7,3.1
	c11.2,1.2,22.4,2.5,33.7,3.7c11.2,1.7,22.3,3.3,33.5,5c11.1,2,22.2,3.9,33.4,5.9c11,2.4,22.1,4.8,33.1,7.2
	c10.9,2.8,21.9,5.7,32.8,8.5c10.8,3.3,21.6,6.5,32.4,9.8c10.7,3.7,21.4,7.4,32,11c10.6,4,21.1,8,31.7,12.1
	c10.4,4.4,20.8,8.7,31.3,13.1c10.3,4.5,20.7,9.1,31,13.6c10.3,4.7,20.5,9.4,30.8,14.1c10.1,5,20.3,9.9,30.4,14.9
	c10.1,5,20.3,9.9,30.4,14.9c10.1,5,20.3,10,30.4,15c10.1,5.1,20.2,10.2,30.2,15.3s20.2,10.2,30.2,15.3c10.1,5.1,20.2,10.2,30.2,15.3
	c10.1,5.1,20.2,10.2,30.2,15.3c10.1,5.1,20.2,10.2,30.2,15.3c6.7,3.4,13.3,6.7,20,10.1c3.4,1.7,6.8,3.5,10.2,5.2c0,0,0,0,0,0
	c11.2-1.4,22.3-2.8,33.5-4.1c11.2-1.4,22.3-2.8,33.5-4.1c11.2-1.4,22.3-2.8,33.5-4.1c11.2-1.3,22.4-2.7,33.5-4
	c11.2-1.1,22.4-2.3,33.6-3.4c11.2-1,22.4-2,33.6-3.1c11.2-0.9,22.4-1.8,33.7-2.7c11.2-0.8,22.5-1.5,33.7-2.3
	c11.2-0.6,22.5-1.2,33.7-1.8c11.2-0.5,22.5-0.9,33.7-1.4c11.3-0.3,22.5-0.6,33.8-0.9c11.3-0.2,22.5-0.4,33.8-0.6
	c11.3-0.1,22.5-0.2,33.8-0.3c11.3,0,22.5,0,33.8,0c11.3,0,22.5,0.1,33.8,0.1c11.3,0.1,22.5,0.1,33.8,0.2c11.3-0.1,22.5-0.1,33.8-0.2
	c11.3,0,22.5-0.1,33.8-0.1c11.3,0,22.5,0,33.8,0c11.3,0.1,22.5,0.2,33.8,0.3c11.3,0.2,22.5,0.4,33.8,0.6c11.3,0.3,22.5,0.6,33.8,0.9
	c11.2,0.5,22.5,0.9,33.7,1.4c11.2,0.6,22.5,1.2,33.7,1.8c11.2,0.8,22.5,1.5,33.7,2.3c11.2,0.9,22.4,1.8,33.7,2.7
	c11.2,1,22.4,2,33.6,3.1c11.2,1.1,22.4,2.3,33.6,3.4c11.2,1.3,22.4,2.7,33.5,4c11.2,1.4,22.3,2.8,33.5,4.1
	c11.2,1.4,22.3,2.8,33.5,4.1c11.2,1.4,22.3,2.8,33.5,4.1c0,0,0,0,0,0c3.4-1.7,6.8-3.5,10.2-5.2c6.7-3.4,13.3-6.7,20-10.1
	c10.1-5.1,20.2-10.2,30.2-15.3c10.1-5.1,20.2-10.2,30.2-15.3c10.1-5.1,20.2-10.2,30.2-15.3c10.1-5.1,20.2-10.2,30.2-15.3
	c10.1-5.1,20.2-10.2,30.2-15.3c10.1-5,20.3-10,30.4-15c10.1-5,20.3-9.9,30.4-14.9c10.1-5,20.3-9.9,30.4-14.9
	c10.3-4.7,20.5-9.4,30.8-14.1c10.3-4.5,20.7-9.1,31-13.6c10.4-4.4,20.8-8.7,31.3-13.1c10.6-4,21.1-8,31.7-12.1
	c10.7-3.7,21.4-7.4,32-11c10.8-3.3,21.6-6.5,32.4-9.8c10.9-2.8,21.9-5.7,32.8-8.5c11-2.4,22.1-4.8,33.1-7.2
	c11.1-2,22.2-3.9,33.4-5.9c11.2-1.7,22.3-3.3,33.5-5c11.2-1.2,22.4-2.5,33.7-3.7c11.2-1,22.5-2.1,33.7-3.1
	c11.3-0.9,22.5-1.7,33.8-2.6c11.3-0.6,22.5-1.2,33.8-1.9c11.3-0.5,22.6-1.1,33.8-1.6l0,0c1.7-11.4,3.4-22.7,5.1-34.1
	c1.7-11.4,3.4-22.7,5.1-34.1c1.7-11.4,3.4-22.7,5.1-34.1c1.7-11.4,3.4-22.7,5.1-34.1c1.7-11.4,3.4-22.7,5.1-34.1
	c1.7-11.4,3.4-22.7,5.1-34.1c1.7-11.4,3.4-22.7,5.1-34.1c1.7-11.4,3.4-22.7,5.1-34.1c1.7-11.4,3.4-22.7,5.1-34.1
	c1.7-11.4,3.4-22.7,5.1-34.1c1.7-11.4,3.4-22.7,5.1-34.1c1.7-11.4,3.4-22.7,5.1-34.1c1.7-11.4,3.4-22.7,5.1-34.1
	c1.7-11.4,3.4-22.7,5.1-34.1c1.7-11.4,3.4-22.7,5.1-34.1c1.7-11.4,3.4-22.7,5.1-34.1c1.7-11.4,3.4-22.7,5.1-34.1l0,0
	c-11.3-1.6-22.6-3.2-33.9-4.8c-11.3-1.6-22.6-3.2-33.8-4.8c-11.3-1.7-22.5-3.3-33.8-5c-11.3-1.7-22.5-3.5-33.8-5.2
	c-11.2-1.9-22.5-3.7-33.7-5.6c-11.2-2-22.4-4-33.7-6c-11.2-2.1-22.4-4.3-33.6-6.4c-11.2-2.3-22.3-4.7-33.5-7
	c-11.1-2.5-22.2-5-33.3-7.5c-11.1-2.7-22.2-5.4-33.2-8c-11-2.8-22.1-5.7-33.1-8.5c-11-3-22-6-33-9c-10.9-3.2-21.9-6.3-32.8-9.5
	c-10.9-3.3-21.8-6.6-32.7-9.9c-10.9-3.4-21.7-6.9-32.6-10.3c-10.8-3.6-21.6-7.2-32.5-10.7c-10.8-3.7-21.5-7.4-32.3-11.1
	c-10.7-3.8-21.5-7.7-32.2-11.5c-10.7-4-21.4-8-32-11.9c-10.6-4.1-21.3-8.2-31.9-12.3c-10.6-4.2-21.2-8.5-31.7-12.7
	c-10.5-4.4-21-8.7-31.6-13.1c-10.5-4.5-20.9-9-31.4-13.5c-10.4-4.6-20.8-9.3-31.2-13.9c-10.3-4.8-20.7-9.5-31-14.3
	c-10.3-4.9-20.6-9.8-30.9-14.7c-10.2-5-20.4-10.1-30.7-15.1c-10.2-5.2-20.3-10.3-30.5-15.5c-10.1-5.3-20.2-10.6-30.3-15.9
	c-10-5.5-20-10.9-30-16.4c-9.5-5.3-18.9-10.7-28.4-16c-9.4-5.4-18.8-10.9-28.2-16.3c-9.4-5.5-18.7-11-28.1-16.5
	c-9.3-5.6-18.6-11.2-27.9-16.8c-9.3-5.7-18.5-11.3-27.8-17c-9.3-5.7-18.5-11.4-27.8-17C1658.9,698.4,1649.7,692.7,1640.4,687z"/>
<path class="st0" d="M1418,2155.1c11.6-0.3,23.2-0.6,34.7-0.8c11.6-0.5,23.1-0.9,34.7-1.4c11.6-0.7,23.1-1.3,34.7-2
	c11.5-0.9,23.1-1.7,34.6-2.6c11.5-1.1,23.1-2.1,34.6-3.2c11.5-1.2,23-2.5,34.5-3.7c11.5-1.4,23-2.8,34.5-4.2c11.5-1.5,23-3,34.4-4.6
	c11.5-1.6,22.9-3.2,34.4-4.7c11.5-1.6,22.9-3.1,34.4-4.7c11.5-1.5,23-3,34.5-4.5c11.5-1.3,23-2.6,34.5-3.9
	c11.5-1.1,23.1-2.1,34.6-3.2c11.6-0.8,23.1-1.5,34.7-2.3c11.6-0.4,23.1-0.9,34.7-1.3c-10-5.3-20-10.6-29.9-15.9
	c-10.1-5-20.2-10.1-30.3-15.1c-10.2-4.8-20.5-9.5-30.7-14.3c-10.4-4.5-20.8-8.9-31.1-13.4c-10.5-4.2-21-8.3-31.5-12.5
	c-10.6-3.8-21.3-7.6-31.9-11.4c-10.8-3.5-21.5-6.9-32.3-10.4c-10.9-3.1-21.7-6.2-32.6-9.3c-11-2.7-21.9-5.5-32.9-8.2
	c-11-2.4-22.1-4.8-33.1-7.1c-11.1-2-22.2-4-33.4-6.1c-11.2-1.7-22.4-3.4-33.5-5c-11.2-1.3-22.4-2.7-33.7-4c-11.3-1-22.5-2-33.8-3
	c-11.3-0.7-22.6-1.4-33.8-2.1c-11.3-0.4-22.6-0.9-33.9-1.3c-11.3,0.4-22.6,0.9-33.9,1.3c-11.3,0.7-22.6,1.4-33.8,2.1
	c-11.3,1-22.5,2-33.8,3c-11.2,1.3-22.4,2.7-33.7,4c-11.2,1.7-22.4,3.4-33.5,5c-11.1,2-22.2,4-33.4,6.1c-11,2.4-22.1,4.8-33.1,7.1
	c-11,2.7-21.9,5.5-32.9,8.2c-10.9,3.1-21.7,6.2-32.6,9.3c-10.8,3.5-21.5,6.9-32.3,10.4c-10.6,3.8-21.3,7.6-31.9,11.4
	c-10.5,4.2-21,8.3-31.5,12.5c-10.4,4.5-20.8,8.9-31.1,13.4c-10.2,4.8-20.5,9.5-30.7,14.3c-10.1,5-20.2,10.1-30.3,15.1
	c-10,5.3-20,10.6-29.9,15.9c11.6,0.4,23.1,0.9,34.7,1.3c11.6,0.8,23.1,1.5,34.7,2.3c11.5,1.1,23.1,2.1,34.6,3.2
	c11.5,1.3,23,2.6,34.5,3.9c11.5,1.5,23,3,34.5,4.5c11.5,1.6,22.9,3.1,34.4,4.7c11.5,1.6,22.9,3.2,34.4,4.7c11.5,1.5,23,3.1,34.4,4.6
	c11.5,1.4,23,2.8,34.5,4.2c11.5,1.2,23,2.5,34.5,3.7c11.5,1.1,23.1,2.1,34.6,3.2c11.5,0.9,23.1,1.7,34.6,2.6
	c11.6,0.7,23.1,1.3,34.7,2c11.6,0.5,23.1,0.9,34.7,1.4C1394.8,2154.6,1406.4,2154.9,1418,2155.1z"/>
</svg>
