<?xml version="1.0" encoding="utf-8"?>
<!-- Generator: Adobe Illustrator 23.0.5, SVG Export Plug-In . SVG Version: 6.00 Build 0)  -->
<svg version="1.1" id="图层_1" xmlns="http://www.w3.org/2000/svg" xmlns:xlink="http://www.w3.org/1999/xlink" x="0px" y="0px"
	 width="1024" height="1024" viewBox="0 0 2834.6 2834.6" style="enable-background:new 0 0 2834.6 2834.6;" xml:space="preserve">
<style type="text/css">
	.st0{fill:#ff0000;stroke:#140700;stroke-miterlimit:10;}
</style>
<path class="st0" d="M2446.9,2807c0-741,0-1482.1,0-2223.1c-0.7-19.9-1.3-39.8-2-59.7c-2-19.8-4-39.6-6-59.4
	c-3.6-19.6-7.2-39.2-10.8-58.7c-5.4-19.1-10.8-38.3-16.2-57.4c-7.5-18.4-14.9-36.9-22.4-55.3c-9.7-17.4-19.4-34.8-29.1-52.1
	c-11.9-15.9-23.9-31.8-35.8-47.7c-14.1-14.1-28.1-28.1-42.2-42.2c-15.9-11.9-31.8-23.9-47.7-35.8c-17.4-9.7-34.8-19.4-52.1-29
	c-18.4-7.5-36.9-14.9-55.3-22.4c-19.1-5.4-38.3-10.8-57.4-16.2c-19.6-3.6-39.2-7.2-58.7-10.8c-19.8-2-39.6-4-59.4-6
	c-19.9-0.7-39.8-1.3-59.7-2c-316,0-632,0-948,0c-19.9,0.7-39.8,1.3-59.7,2c-19.8,2-39.6,4-59.4,6c-19.6,3.6-39.2,7.2-58.7,10.8
	C747,53.2,727.9,58.6,708.7,64c-18.4,7.5-36.9,14.9-55.3,22.4c-17.4,9.7-34.8,19.4-52.1,29c-15.9,11.9-31.8,23.9-47.7,35.8
	c-14.1,14.1-28.1,28.1-42.2,42.2c-11.9,15.9-23.9,31.8-35.8,47.7c-9.7,17.4-19.4,34.8-29,52.1c-7.5,18.4-15,36.9-22.4,55.3
	c-5.4,19.1-10.8,38.3-16.2,57.4c-3.6,19.6-7.2,39.2-10.8,58.7c-2,19.8-4,39.6-6,59.4c-0.7,19.9-1.3,39.8-2,59.7
	c0,741,0,1482.1,0,2223.1C1075,2807,1761,2807,2446.9,2807z"/>
</svg>
