<?xml version="1.0" encoding="utf-8"?>
<!-- Generator: Adobe Illustrator 23.0.5, SVG Export Plug-In . SVG Version: 6.00 Build 0)  -->
<svg version="1.1" id="图层_1" xmlns="http://www.w3.org/2000/svg" xmlns:xlink="http://www.w3.org/1999/xlink" x="0px" y="0px"
	 width="1024" height="1024" viewBox="0 0 2834.6 2834.6" style="enable-background:new 0 0 2834.6 2834.6;" xml:space="preserve">
<style type="text/css">
	.st0{fill:#ff0000;stroke:#140700;stroke-miterlimit:10;}
</style>
<path class="st0" d="M76.2,1777.5c19.5,57.3,38.9,114.7,58.4,172c26.8,54.4,53.7,108.8,80.5,163.1c33.5,50.4,67.1,100.7,100.6,151.1
	c39.9,45.5,79.9,91.1,119.8,136.6c45.6,39.9,91.3,79.9,136.9,119.8c50.3,33.5,100.5,67.1,150.8,100.6
	c54.4,26.8,108.8,53.7,163.1,80.5c57.4,19.5,114.9,38.9,172.3,58.4c59.3,11.8,118.6,23.6,177.9,35.4c60.5,3.9,121,7.9,181.4,11.8
	c60.4-3.9,120.8-7.9,181.1-11.8c59.4-11.8,118.8-23.6,178.2-35.4c57.4-19.5,114.9-38.9,172.3-58.4c54.3-26.8,108.6-53.7,162.9-80.5
	c50.4-33.5,100.7-67.1,151.1-100.6c45.5-39.9,91.1-79.9,136.6-119.8c39.9-45.5,79.9-91.1,119.8-136.6
	c33.6-50.4,67.3-100.7,100.9-151.1c26.8-54.4,53.7-108.8,80.5-163.1c19.4-57.3,38.7-114.7,58.1-172c11.8-59.4,23.6-118.8,35.4-178.2
	c4-60.5,8.1-121,12.1-181.4c-4-60.4-8.1-120.8-12.1-181.1c-11.8-59.4-23.6-118.8-35.4-178.2c-19.4-57.4-38.7-114.9-58.1-172.3
	c-26.8-54.3-53.7-108.6-80.5-162.9c-33.6-50.4-67.3-100.7-100.9-151.1c-39.9-45.5-79.9-91.1-119.8-136.6
	c-45.5-39.9-91.1-79.9-136.6-119.8c-50.4-33.6-100.7-67.3-151.1-100.9c-54.3-26.7-108.6-53.5-162.9-80.2
	c-57.4-19.5-114.9-38.9-172.3-58.4c-59.4-11.8-118.8-23.6-178.2-35.4c-60.4-3.9-120.8-7.9-181.1-11.8c-60.5,3.9-121,7.9-181.4,11.8
	c-59.3,11.8-118.6,23.6-177.9,35.4c-57.4,19.5-114.9,38.9-172.3,58.4C832,161.5,777.6,188.3,723.2,215
	c-50.3,33.6-100.5,67.3-150.8,100.9c-45.6,39.9-91.3,79.9-136.9,119.8c-39.9,45.5-79.9,91.1-119.8,136.6
	c-33.5,50.3-67.1,100.7-100.6,151.1c-26.8,54.3-53.7,108.6-80.5,162.9c-19.5,57.4-38.9,114.9-58.4,172.3
	c-11.8,59.4-23.6,118.8-35.4,178.2c-3.9,60.4-7.9,120.8-11.8,181.1c3.9,60.5,7.9,121,11.8,181.4
	C52.6,1658.7,64.4,1718.1,76.2,1777.5z"/>
</svg>
