<?xml version="1.0" encoding="utf-8"?>
<!-- Generator: Adobe Illustrator 23.0.5, SVG Export Plug-In . SVG Version: 6.00 Build 0)  -->
<svg version="1.1" id="图层_1" xmlns="http://www.w3.org/2000/svg" xmlns:xlink="http://www.w3.org/1999/xlink" x="0px" y="0px"
	 width="1024" height="1024" viewBox="0 0 2834.6 2834.6" style="enable-background:new 0 0 2834.6 2834.6;" xml:space="preserve">
<style type="text/css">
	.st0{fill:#ff0000;stroke:#140700;stroke-miterlimit:10;}
</style>
<path class="st0" d="M2807,1418c-2-14.9-3.9-29.9-5.9-44.8c-5.8-13.9-11.6-27.8-17.4-41.7c-9.1-11.9-18.3-23.9-27.4-35.8
	c-11.9-9.1-23.9-18.3-35.8-27.4c-13.9-5.7-27.8-11.3-41.7-17c-14.9-2-29.7-3.9-44.6-5.9c-810.8,0-1621.6,0-2432.3,0
	c-14.9,2-29.9,3.9-44.8,5.9c-13.9,5.7-27.8,11.3-41.7,17c-11.9,9.1-23.9,18.3-35.8,27.4c-9.1,11.9-18.3,23.9-27.4,35.8
	c-5.8,13.9-11.6,27.8-17.4,41.7c-2,14.9-3.9,29.9-5.9,44.8c2,14.9,3.9,29.9,5.9,44.8c5.8,13.9,11.6,27.8,17.4,41.7
	c9.1,11.9,18.3,23.9,27.4,35.8c11.9,9.1,23.9,18.1,35.8,27.2c13.9,5.7,27.8,11.4,41.7,17.2c14.9,2,29.9,3.9,44.8,5.9
	c810.8,0,1621.6,0,2432.3,0c14.9-2,29.7-3.9,44.6-5.9c13.9-5.7,27.8-11.4,41.7-17.2c11.9-9.1,23.9-18.1,35.8-27.2
	c9.1-11.9,18.3-23.9,27.4-35.8c5.8-13.9,11.6-27.8,17.4-41.7C2803.1,1447.9,2805,1432.9,2807,1418z"/>
</svg>
