<?xml version="1.0" encoding="utf-8"?>
<!-- Generator: Adobe Illustrator 23.0.5, SVG Export Plug-In . SVG Version: 6.00 Build 0)  -->
<svg version="1.1" id="图层_1" xmlns="http://www.w3.org/2000/svg" xmlns:xlink="http://www.w3.org/1999/xlink" x="0px" y="0px"
	 width="1024" height="1024" viewBox="0 0 2834.6 2834.6" style="enable-background:new 0 0 2834.6 2834.6;" xml:space="preserve">
<style type="text/css">
	.st0{fill:#ff0000;stroke:#140700;stroke-miterlimit:10;}
</style>
<path class="st0" d="M114.4,1614.9c24.1,17.8,48.2,35.5,72.2,53.3c28.3,8.1,56.6,16.3,84.9,24.4c37.4,2.1,74.9,4.2,112.3,6.3
	c646.9,4.6,1293.7,9.2,1940.6,13.7c43-0.7,86.1-1.5,129.1-2.2c38.8-7,77.6-14.1,116.4-21.1c30-12,60.1-24,90.1-36
	c24.6-16,49.3-32,73.9-48.1c19.8-24.6,39.5-49.3,59.3-73.9c4.6-37.8,9.2-75.6,13.7-113.4c-4.6-37.8-9.2-75.6-13.7-113.4
	c-19.8-24.6-39.5-49.3-59.3-73.9c-24.6-15.9-49.3-31.9-73.9-47.8c-30-12.1-60.1-24.2-90.1-36.3c-38.8-7-77.6-13.9-116.4-20.9
	c-43-0.8-86.1-1.6-129.1-2.5c-646.9,4.7-1293.7,9.3-1940.6,14c-37.4,2-74.9,4-112.3,6c-28.3,8.1-56.6,16.3-84.9,24.4
	c-24.1,17.9-48.2,35.7-72.2,53.6c-14.6,18.1-29.3,36.3-43.9,54.4c-9.6,24.5-19.2,49.1-28.8,73.6c-4.2,22.9-8.4,45.8-12.6,68.7
	c4.2,22.9,8.4,45.8,12.6,68.7c9.6,24.6,19.2,49.3,28.8,73.9C85.1,1578.7,99.8,1596.8,114.4,1614.9z"/>
</svg>
